<?xml version="1.0" encoding="UTF-8"?>
<svg version="1.1" id="DefQA_Icon" xmlns="http://www.w3.org/2000/svg" viewBox="0 0 32 32" fill="none" stroke="#000000">
  <title>DefQA icon</title>
  <style>
    .mesh { fill: none; stroke: #000000; stroke-width: 2; stroke-linecap: round; stroke-linejoin: round; stroke-miterlimit: 10; }
    .letter { fill: #000000; stroke: none; fill-rule: nonzero; }
  </style>
  <g id="deform-mesh">
    <rect x="4" y="4" width="24" height="24" class="mesh"/>
    <path class="mesh" d="M4,25l4.9-4c3.1-2.5,7.3-3,11-1.4c2,0.9,4.2,1.1,6.4,0.7L28,20"/>
    <path class="mesh" d="M4,13l7-3.2c2.6-1.2,5.5-1.3,8.1-0.3l2.1,0.8c1.2,0.4,2.5,0.7,3.7,0.7H28"/>
    <path class="mesh" d="M24,4l-0.8,1.2C18.7,11.9,17.9,20.5,21,28"/>
    <path class="mesh" d="M14,4c-4.8,7.3-4.8,16.7,0,24"/>
  </g>
  <g id="defqa-letters">
    <path class="letter" d="M14.914,16.524 L14.778,16.511 Q13.132,16.474 12.089,15.718 Q11.182,15.012 11.218,13.471 Q11.478,11.973 12.534,11.012 Q13.716,10.158 15.301,10.143 Q16.972,10.329 17.541,11.291 Q18.160,12.374 17.828,13.937 Q17.772,15.039 17.364,15.676 Q17.029,16.314 16.233,16.478 L18.063,18.170 L16.425,17.751 L14.914,16.524 Z M14.854,11.192 Q14.075,11.171 13.502,11.695 Q12.969,12.246 12.829,13.234 Q12.791,14.255 13.220,14.782 Q13.690,15.320 14.486,15.359 Q15.274,15.447 15.640,14.960 Q16.041,14.479 16.079,13.462 Q16.233,12.456 15.927,11.842 Q15.651,11.261 14.854,11.192 Z"/>
    <path class="letter" d="M24.976,17.915 L21.996,17.963 L21.906,19.255 L20.328,19.022 L22.956,11.928 L24.886,12.091 L27.437,18.976 L25.620,19.151 L24.976,17.915 Z M22.314,16.589 L24.375,16.600 L23.520,13.671 L22.314,16.589 Z"/>
  </g>
</svg>
